<?xml version="1.0" encoding="UTF-8"?>
<!DOCTYPE svg PUBLIC "-//W3C//DTD SVG 1.1//EN" "http://www.w3.org/Graphics/SVG/1.1/DTD/svg11.dtd">
<!-- Creator: CorelDRAW 2017 -->
<svg xmlns="http://www.w3.org/2000/svg" xml:space="preserve" width="209.875mm" height="80.5266mm" version="1.1" style="shape-rendering:geometricPrecision; text-rendering:geometricPrecision; image-rendering:optimizeQuality; fill-rule:evenodd; clip-rule:evenodd"
viewBox="0 0 20387.42 7822.4"
 xmlns:xlink="http://www.w3.org/1999/xlink">
 <defs>
  <style type="text/css">
   <![CDATA[
    .fil2 {fill:#98999B}
    .fil0 {fill:#003A70;fill-rule:nonzero}
    .fil1 {fill:#98999B;fill-rule:nonzero}
   ]]>
  </style>
 </defs>
 <g id="Warstwa_x0020_1">
  <metadata id="CorelCorpID_0Corel-Layer"/>
  <path class="fil0" d="M1026.9 2959.58l1253.88 0c240.43,0 406.06,-68.49 496.16,-204.11 90.98,-136.94 136.03,-343.66 136.03,-620.5 0,-526.62 -197.79,-790.53 -591.16,-790.53l-1294.9 0 0 1615.14zm-1020.44 2731.75l0 -5071.79 2188.68 0c654.49,0 1101.49,133.16 1338.34,398.81 236.28,264.95 355.39,625.16 355.39,1080.29 0,455.09 -65.34,786.66 -197.04,993.48 -131.46,206.51 -314.37,356.54 -548.93,448.06l979.38 2151.15 -1057.98 0 -890.27 -2003.36 -1147.11 0 0 2003.36 -1020.44 0zm6189.57 78.6c-1068.53,0 -1602.21,-397.62 -1602.21,-1195.26l0 -1453.25c0,-378.87 141.26,-673.12 421.05,-883.21 280.42,-210.5 673.29,-316.69 1178.83,-316.69 505.51,0 898.46,106.11 1179.96,317.85 282.19,212.34 423.42,506.04 423.42,882.05l0 1453.25c0,593.03 -281.57,964.88 -845.68,1113.12 -210.71,55.36 -462.12,82.13 -755.37,82.13zm0 -648.65c443.37,0 666.22,-168.9 666.22,-505.54l0 -1536.55c0,-180.62 -56.44,-310 -168.9,-388.22 -111.1,-77.29 -277.97,-116.12 -497.32,-116.12 -444.53,0 -667.39,168.2 -667.39,504.34l0 1536.55c0,180.12 56.31,311.36 166.54,388.26 110.96,77.42 278,117.28 500.85,117.28zm4094.49 611.11c-560.4,0 -962.84,-84.95 -1205.76,-254.52 -242.42,-169.15 -364.78,-489.13 -364.78,-958.31l0 -1924.8 -490.29 0 0 -593.49 518.43 0 85.61 -1185.85 821.08 0 0 1185.85 876.18 0 0 593.49 -876.18 0 0 1859.14c0,229.63 54.73,384.32 163.04,464.49 108.43,80.3 317.85,119.61 627.48,119.61l110.26 0 -34 694.4 -231.08 0zm4660.34 -41.06l0 -3690.06 934.83 0 0 329.58c127.84,-133.7 294.34,-235.2 499.68,-304.93 204.98,-69.61 401.14,-104.4 588.8,-104.4 492.66,0 830.46,152.48 1014.62,457.45 303.77,-304.97 713.14,-457.45 1226.88,-457.45 351.89,0 636.09,95.97 850.37,287.35 213.67,190.8 321.39,442.42 321.39,754.2l0 2728.26 -934.82 0 0 -2618c0,-179.46 -47.3,-301.16 -139.6,-365.95 -92.85,-65.2 -226.35,-98.54 -402.31,-98.54 -174.77,0 -343.63,46.13 -504.34,137.24 -161.63,91.63 -263.91,214.24 -263.91,368.31l0 2576.94 -933.67 0 0 -2618c0,-179.46 -49.62,-301.11 -147.79,-365.95 -98.7,-65.16 -238.1,-98.54 -417.56,-98.54 -180.62,0 -351.85,49.63 -513.78,146.62 -162.75,97.51 -243.96,228.92 -243.96,396.45l0 2539.41 -934.83 0z"/>
  <path class="fil1" d="M12664.84 5769.93c-1068.53,0 -1602.21,-397.62 -1602.21,-1195.26l0 -1453.25c0,-378.87 141.14,-672.99 421.05,-883.21 280.54,-210.63 673.29,-316.69 1178.83,-316.69 505.51,0 898.35,105.98 1179.96,317.85 282.32,212.46 423.43,505.79 423.43,882.05l0 1453.25c0,593.29 -281.49,964.71 -845.69,1113.12 -210.87,55.45 -462.11,82.13 -755.37,82.13zm0 -648.65c443.37,0 666.22,-168.9 666.22,-505.54l0 -1536.55c0,-180.62 -56.31,-309.88 -168.9,-388.22 -111.22,-77.42 -277.96,-116.12 -497.32,-116.12 -444.53,0 -667.39,167.96 -667.39,504.34l0 1536.55c0,180.37 56.2,311.25 166.54,388.26 111.09,77.55 278,117.28 500.85,117.28z"/>
  <path class="fil2" d="M19347.43 1710.42c549.11,-267.8 1335.28,-606.81 910.7,-1233.34 -1188.49,-1392.89 -7190.36,593.05 -8774.47,1761.12 1640.37,-1263.29 9742.7,-3042.1 7863.77,-527.78z"/>
  <path class="fil1" d="M154.98 7465.58l0 -802.95 -154.98 0 0 -124.21 154.98 0 0 -140.95c0,-85.68 23.29,-148.69 70.46,-188.72 46.89,-39.7 118.56,-59.71 214.71,-59.71l104.21 0 10.44 116.16 -101.52 0c-89.29,0 -133.78,38.82 -133.78,116.45l0 156.77 224.86 0 0 124.21 -224.86 0 0 802.95 -164.52 0zm851.91 19.11c-94.06,0 -166.92,-25.36 -218.88,-76.44 -51.66,-51.06 -77.63,-114.35 -77.63,-190.21 0,-43.31 8.97,-79.12 27.18,-107.49 36.72,-58.55 146.32,-114.07 328.76,-167.22 105.72,-29.27 166.33,-54.36 182.44,-75.25 16.13,-20.89 24.8,-37.32 26.6,-49.56 1.79,-11.97 2.67,-31.07 2.67,-57.04 0,-26.27 -10.74,-51.96 -31.95,-77.04 -21.2,-25.09 -67.48,-37.63 -138.55,-37.63 -100.34,0 -161.84,19.11 -184.53,57.64 -11.66,20.01 -17.64,46.59 -17.64,80.61l0 40.91 -158.25 0 0 -41.79c0,-90.48 30.15,-157.08 90.5,-199.47 60.31,-42.7 150.48,-63.9 270.81,-63.9 120.06,0 205.75,27.18 257.11,81.81 51.36,54.34 77.05,132.3 77.05,233.22l0 395.35c0,48.39 5.95,79.72 18.19,94.06 12.24,14.34 38.54,21.5 78.84,21.5l-19.11 125.71 -33.44 0c-58.25,0 -101.83,-11.05 -130.2,-33.44 -28.67,-22.69 -50.47,-57.34 -65.69,-104.51 -48.39,72.25 -106.6,117.66 -174.99,136.46 -32.56,9.26 -68.98,13.73 -109.3,13.73zm82.72 -429.1c-83.31,24.2 -140.65,48.38 -172.29,72.27 -31.95,23.88 -47.77,57.62 -47.77,101.23 0,43.31 14.61,76.14 44.19,98.25 29.55,22.08 65.08,33.13 106.59,33.13 41.8,0 79.42,-5.38 113.47,-16.13 33.74,-10.75 64.2,-26.88 91.38,-48.07 27.16,-21.21 44.79,-45.69 52.84,-73.17l0 -267.53c-42.39,42.7 -105.41,75.84 -188.41,100.02zm1037.05 429.1c-189.31,0 -308.14,-65.7 -355.94,-197.68 -14.03,-37.32 -20.89,-77.93 -20.89,-122.43l0 -353.23c0,-88.11 33.44,-158.56 100.65,-211.41 66.87,-52.87 157.65,-79.14 272.02,-79.14 145.72,0 246.04,31.34 300.7,94.35 43.28,48.96 64.78,121.54 64.78,217.09l-156.47 14.94c0,-83.03 -14.63,-137.07 -44.19,-162.45 -29.55,-25.39 -81.81,-37.93 -157.07,-37.93 -75.24,0 -130.18,13.15 -164.53,39.42 -34.34,26.28 -51.66,69.28 -51.66,129.29l0 363.1c0,64.2 18.22,110.19 54.34,138.27 36.14,28.06 91.98,42.09 167.52,42.09 75.56,0 126.01,-10.14 151.39,-29.85 25.39,-19.71 40.92,-64.8 46.89,-134.69l151.98 0c-9.26,107.2 -40,182.46 -92.57,225.76 -52.54,42.98 -141.53,64.48 -266.95,64.48zm644.99 -19.11l0 -927.17 164.22 0 0 927.17 -164.22 0zm0 -1094.39l0 -170.5 164.22 0 0 170.5 -164.22 0zm804.72 1101.25c-54.33,0 -98.52,-3.89 -133.17,-12.24 -34.32,-8.05 -64.5,-23.6 -90.78,-46.29 -48.96,-42.39 -73.44,-129.59 -73.44,-261.58l0 -1003.31 164.22 0 0 1005.1c0,74.65 11.36,123.33 33.44,146.02 22.11,22.68 67.78,34.34 137.37,34.34l28.67 0 -19.11 137.95 -47.19 0zm325.51 -6.87l0 -927.17 164.22 0 0 927.17 -164.22 0zm0 -1094.39l0 -170.5 164.22 0 0 170.5 -164.22 0zm932.24 1101.25c-129.31,0 -222.76,-20.29 -280.1,-61.2 -57.61,-40.63 -86.28,-111.09 -86.28,-210.82l0 -537.8 -154.98 0 0 -124.21 160.93 0 20.31 -286.96 138.25 0 0 286.96 232.61 0 0 124.21 -232.61 0 0 527.35c0,58.23 16.73,97.03 50.17,115.86 33.44,19.11 91.96,28.67 175.57,28.67l18.22 0 -17.32 137.95 -24.78 0zm555.69 12.24c-94.06,0 -166.92,-25.36 -218.88,-76.44 -51.66,-51.06 -77.63,-114.35 -77.63,-190.21 0,-43.31 8.96,-79.12 27.18,-107.49 36.72,-58.55 146.32,-114.07 328.76,-167.22 105.71,-29.27 166.33,-54.36 182.43,-75.25 16.14,-20.89 24.81,-37.32 26.6,-49.56 1.8,-11.97 2.68,-31.07 2.68,-57.04 0,-26.27 -10.75,-51.96 -31.95,-77.04 -21.2,-25.09 -67.48,-37.63 -138.55,-37.63 -100.34,0 -161.85,19.11 -184.53,57.64 -11.66,20.01 -17.64,46.59 -17.64,80.61l0 40.91 -158.26 0 0 -41.79c0,-90.48 30.16,-157.08 90.5,-199.47 60.31,-42.7 150.49,-63.9 270.82,-63.9 120.06,0 205.75,27.18 257.11,81.81 51.36,54.34 77.05,132.3 77.05,233.22l0 395.35c0,48.39 5.95,79.72 18.19,94.06 12.24,14.34 38.54,21.5 78.84,21.5l-19.11 125.71 -33.44 0c-58.25,0 -101.83,-11.05 -130.2,-33.44 -28.67,-22.69 -50.47,-57.34 -65.7,-104.51 -48.38,72.25 -106.59,117.66 -174.99,136.46 -32.55,9.26 -68.97,13.73 -109.29,13.73zm82.72 -429.1c-83.31,24.2 -140.65,48.38 -172.3,72.27 -31.95,23.88 -47.77,57.62 -47.77,101.23 0,43.31 14.62,76.14 44.19,98.25 29.56,22.08 65.09,33.13 106.6,33.13 41.8,0 79.42,-5.38 113.47,-16.13 33.74,-10.75 64.2,-26.88 91.38,-48.07 27.15,-21.21 44.79,-45.69 52.84,-73.17l0 -267.53c-42.4,42.7 -105.42,75.84 -188.41,100.02zm1121.87 416.86c-129.31,0 -222.76,-20.29 -280.1,-61.2 -57.61,-40.63 -86.28,-111.09 -86.28,-210.82l0 -537.8 -154.98 0 0 -124.21 160.93 0 20.31 -286.96 138.25 0 0 286.96 232.6 0 0 124.21 -232.6 0 0 527.35c0,58.23 16.73,97.03 50.17,115.86 33.44,19.11 91.96,28.67 175.57,28.67l18.21 0 -17.31 137.95 -24.78 0zm659.01 12.24c-135.85,0 -234.4,-28.06 -295.03,-84.79 -60.62,-56.43 -90.77,-143.62 -90.77,-261.58l0 -322.8c0,-91.36 31.07,-163.64 93.47,-215.88 62.41,-52.57 156.78,-78.84 283.09,-78.84 126.3,0 220.06,24.18 281.56,73.16 61.53,48.68 92.26,118.24 92.26,208.43l0 220.66 -586.15 0 0 130.2c0,77.02 15.52,130.47 46.59,160.63 30.74,29.85 86.58,45.09 166.92,45.09 80.63,0 126,-1.79 136.45,-5.37 10.45,-3.58 21.5,-7.47 32.55,-12.24 11.05,-4.77 18.81,-10.14 22.99,-16.73 4.47,-6.27 10.14,-16.13 17.61,-29.25 7.17,-13.15 12.55,-38.54 16.13,-76.45l145.12 0c-5.65,55.24 -15.52,100.02 -29.25,133.76 -13.74,33.74 -35.23,60.92 -64.81,80.93 -29.25,20.01 -64.48,33.75 -105.69,40.6 -41.22,7.17 -95.57,10.45 -163.05,10.45zm-221.56 -573.02l427 0 0 -126.61c0,-52.54 -17.91,-88.68 -53.75,-108.67 -35.84,-19.71 -88.38,-29.58 -157.96,-29.58 -69.27,0 -122.73,11.94 -159.75,35.84 -37.05,23.9 -55.55,63.3 -55.55,117.96l0 111.07zm1159.5 447.31c124.21,0 186.33,-46.58 186.33,-139.15 0,-40.3 -5.68,-70.15 -16.74,-89.86 -11.04,-19.41 -37.02,-36.75 -77.93,-51.96l-220.37 -81.24c-67.78,-23.88 -114.67,-52.54 -141.24,-85.4 -26.58,-32.83 -39.7,-74.05 -39.7,-123.91 0,-49.57 4.77,-89.29 14.61,-119.14 10.17,-30.16 26.3,-56.43 48.99,-79.42 45.68,-45.4 127.2,-68.09 245.15,-68.09 117.65,0 219.18,17.01 304.27,50.75l-37.62 126.03c-29.56,-12.24 -68.68,-23.9 -117.05,-34.65 -48.38,-10.74 -90.78,-16.13 -126.91,-16.13 -83.31,0 -136.15,13.45 -158.26,40.33 -13.42,16.71 -20.28,41.49 -20.28,74.34 0,32.53 5.37,55.83 16.13,69.58 11.03,13.42 31.95,25.97 63.59,37.02l217.69 85.71c75.84,29.85 125.71,62.68 149.59,98.52 23.9,35.84 35.84,92.26 35.84,169.32 0,76.74 -24.78,140.04 -74.35,189.33 -49.56,49.26 -126.01,73.74 -229.93,73.74 -75.84,0 -143.32,-8.05 -202.15,-24.48 -58.82,-16.13 -104.2,-33.13 -135.57,-50.76l40.33 -120.65c83.31,46.58 175.27,70.17 275.61,70.17zm1048.69 461.63l0 -128.38c72.25,0 130.77,-17.91 175.26,-53.45 44.8,-35.53 78.24,-94.36 100.35,-176.79l-382.21 -923.58 174.09 0 283.36 738.15 237.09 -738.15 166.03 0 -304.27 887.75c-40.3,117.36 -76.45,198.58 -109,243.67 -32.25,45.09 -63.3,76.74 -93.15,94.96 -61.23,37.32 -143.65,55.82 -247.54,55.82zm1098.55 -616.61c0,103.32 73.16,154.98 219.76,154.98 146.32,0 219.48,-51.66 219.48,-154.98l0 -401.61c0,-103.63 -73.16,-155.59 -219.48,-155.59 -146.6,0 -219.76,51.96 -219.76,155.59l0 401.61zm603.76 -14.03c0,91.08 -31.04,163.03 -93.15,215.59 -62.1,52.84 -159.47,79.12 -291.73,79.12 -132.6,0 -229.33,-25.97 -290.86,-78.54 -61.5,-52.54 -92.26,-124.51 -92.26,-216.18l0 -373.55c0,-91.38 30.76,-163.63 92.26,-216.48 61.53,-52.87 158.26,-79.14 290.86,-79.14 132.27,0 229.63,26.57 291.73,79.72 62.11,52.86 93.15,124.82 93.15,215.9l0 373.55zm602.6 294.71c-157.95,0 -258.3,-55.83 -301,-167.8 -12.24,-31.95 -18.21,-67.2 -18.21,-105.11l0 -673.37 164.24 0 0 674.25c0,45.68 17.04,81.23 50.47,107.2 33.44,25.97 83.61,39.11 149.88,39.11 66.6,0 120.66,-16.73 162.45,-49.56 41.52,-32.85 62.41,-71.07 62.41,-114.07l0 -656.93 164.55 0 0 927.17 -146.93 0 -17.62 -116.46c-51.36,90.5 -141.25,135.57 -270.24,135.57zm760.26 -19.11l0 -927.17 164.52 0 0 131.08c20.89,-57.04 77.63,-98.53 170.5,-124.21 48.38,-14.04 98.85,-20.59 151.39,-19.99l-5.38 140.62c-79.11,0 -151.98,15.84 -217.66,47.19 -66,31.65 -98.85,66 -98.85,103.32l0 649.16 -164.52 0zm1443.43 6.87c-54.33,0 -98.52,-3.89 -133.17,-12.24 -34.32,-8.05 -64.5,-23.6 -90.78,-46.29 -48.96,-42.39 -73.44,-129.59 -73.44,-261.58l0 -1003.31 164.22 0 0 1005.1c0,74.65 11.36,123.33 33.44,146.02 22.11,22.68 67.78,34.34 137.37,34.34l28.67 0 -19.11 137.95 -47.19 0zm438.97 -268.45c0,103.32 73.17,154.98 219.76,154.98 146.32,0 219.49,-51.66 219.49,-154.98l0 -401.61c0,-103.63 -73.17,-155.59 -219.49,-155.59 -146.59,0 -219.76,51.96 -219.76,155.59l0 401.61zm603.77 -14.03c0,91.08 -31.05,163.03 -93.15,215.59 -62.11,52.84 -159.48,79.12 -291.74,79.12 -132.59,0 -229.32,-25.97 -290.85,-78.54 -61.5,-52.54 -92.26,-124.51 -92.26,-216.18l0 -373.55c0,-91.38 30.76,-163.63 92.26,-216.48 61.53,-52.87 158.26,-79.14 290.85,-79.14 132.27,0 229.63,26.57 291.74,79.72 62.1,52.86 93.15,124.82 93.15,215.9l0 373.55zm387.3 474.17c60.63,22.11 134.97,33.16 223.07,33.16 88.08,0 149.88,-16.44 185.13,-49.87 35.23,-33.15 52.84,-84.81 52.84,-154.68l0 -128.7c-23.9,22.1 -59.43,38.81 -107.2,49.86 -47.46,11.05 -91.08,16.74 -130.77,16.74 -234.43,0 -351.47,-98.85 -351.47,-296.53l0 -305.47c0,-96.15 29.28,-171.71 87.8,-226.05 58.53,-54.63 146.6,-81.81 263.68,-81.81 46.86,0 94.63,9.84 143.92,29.27 49.26,19.69 80.61,40.3 94.05,62.69l0 -74.35 164.53 0 0 905.37c0,111.39 -29.26,202.17 -87.78,272.94 -58.83,70.46 -153.49,105.69 -283.99,105.69 -130.78,0 -227.53,-11.64 -290.53,-34.93l36.72 -123.33zm461.05 -889.55c0,-85.4 -70.76,-127.8 -212.61,-127.8 -141.53,0 -212.6,54.64 -212.6,164.55l0 348.16c0,96.76 71.07,145.12 212.6,145.12 83.61,0 154.4,-23.27 212.61,-69.86l0 -460.16zm498.98 690.98l0 -927.17 164.22 0 0 927.17 -164.22 0zm0 -1094.39l0 -170.5 164.22 0 0 170.5 -164.22 0zm781.16 987.78c124.21,0 186.32,-46.58 186.32,-139.15 0,-40.3 -5.67,-70.15 -16.73,-89.86 -11.05,-19.41 -37.02,-36.75 -77.93,-51.96l-220.37 -81.24c-67.78,-23.88 -114.67,-52.54 -141.25,-85.4 -26.57,-32.83 -39.69,-74.05 -39.69,-123.91 0,-49.57 4.77,-89.29 14.61,-119.14 10.17,-30.16 26.3,-56.43 48.99,-79.42 45.68,-45.4 127.19,-68.09 245.14,-68.09 117.66,0 219.18,17.01 304.28,50.75l-37.63 126.03c-29.55,-12.24 -68.67,-23.9 -117.04,-34.65 -48.38,-10.74 -90.78,-16.13 -126.91,-16.13 -83.31,0 -136.15,13.45 -158.26,40.33 -13.42,16.71 -20.29,41.49 -20.29,74.34 0,32.53 5.38,55.83 16.13,69.58 11.04,13.42 31.95,25.97 63.6,37.02l217.69 85.71c75.84,29.85 125.71,62.68 149.58,98.52 23.91,35.84 35.84,92.26 35.84,169.32 0,76.74 -24.78,140.04 -74.34,189.33 -49.57,49.26 -126.01,73.74 -229.93,73.74 -75.84,0 -143.32,-8.05 -202.15,-24.48 -58.83,-16.13 -104.2,-33.13 -135.57,-50.76l40.32 -120.65c83.31,46.58 175.27,70.17 275.62,70.17zm1018.83 113.47c-129.31,0 -222.76,-20.29 -280.1,-61.2 -57.61,-40.63 -86.28,-111.09 -86.28,-210.82l0 -537.8 -154.98 0 0 -124.21 160.93 0 20.31 -286.96 138.25 0 0 286.96 232.6 0 0 124.21 -232.6 0 0 527.35c0,58.23 16.73,97.03 50.17,115.86 33.44,19.11 91.96,28.67 175.57,28.67l18.21 0 -17.31 137.95 -24.78 0zm323.98 -6.87l0 -927.17 164.22 0 0 927.17 -164.22 0zm0 -1094.39l0 -170.5 164.22 0 0 170.5 -164.22 0zm847.43 1113.49c-189.3,0 -308.14,-65.7 -355.93,-197.68 -14.04,-37.32 -20.89,-77.93 -20.89,-122.43l0 -353.23c0,-88.11 33.44,-158.56 100.64,-211.41 66.88,-52.87 157.66,-79.14 272.02,-79.14 145.72,0 246.04,31.34 300.7,94.35 43.29,48.96 64.78,121.54 64.78,217.09l-156.46 14.94c0,-83.03 -14.64,-137.07 -44.19,-162.45 -29.55,-25.39 -81.82,-37.93 -157.08,-37.93 -75.23,0 -130.17,13.15 -164.52,39.42 -34.35,26.28 -51.66,69.28 -51.66,129.29l0 363.1c0,64.2 18.22,110.19 54.33,138.27 36.15,28.06 91.99,42.09 167.53,42.09 75.56,0 126,-10.14 151.39,-29.85 25.38,-19.71 40.91,-64.8 46.89,-134.69l151.98 0c-9.27,107.2 -40,182.46 -92.58,225.76 -52.54,42.98 -141.52,64.48 -266.95,64.48zm904.79 -125.71c124.21,0 186.33,-46.58 186.33,-139.15 0,-40.3 -5.68,-70.15 -16.74,-89.86 -11.04,-19.41 -37.02,-36.75 -77.93,-51.96l-220.36 -81.24c-67.79,-23.88 -114.67,-52.54 -141.25,-85.4 -26.58,-32.83 -39.7,-74.05 -39.7,-123.91 0,-49.57 4.77,-89.29 14.62,-119.14 10.16,-30.16 26.29,-56.43 48.98,-79.42 45.68,-45.4 127.2,-68.09 245.15,-68.09 117.65,0 219.18,17.01 304.27,50.75l-37.62 126.03c-29.56,-12.24 -68.67,-23.9 -117.05,-34.65 -48.38,-10.74 -90.78,-16.13 -126.91,-16.13 -83.31,0 -136.15,13.45 -158.26,40.33 -13.42,16.71 -20.28,41.49 -20.28,74.34 0,32.53 5.37,55.83 16.13,69.58 11.03,13.42 31.95,25.97 63.6,37.02l217.68 85.71c75.84,29.85 125.71,62.68 149.59,98.52 23.9,35.84 35.84,92.26 35.84,169.32 0,76.74 -24.78,140.04 -74.35,189.33 -49.56,49.26 -126,73.74 -229.93,73.74 -75.84,0 -143.32,-8.05 -202.14,-24.48 -58.83,-16.13 -104.2,-33.13 -135.58,-50.76l40.33 -120.65c83.31,46.58 175.27,70.17 275.61,70.17z"/>
 </g>
</svg>
